<?xml version="1.0" encoding="UTF-8"?>
<svg id="Layer_1" data-name="Layer 1" xmlns="http://www.w3.org/2000/svg" viewBox="0 0 243.81 170.49">
  <defs>
    <style>
      .cls-1 {
        fill: #fff;
      }
    </style>
  </defs>
  <path class="cls-1" d="M241.55,90.48c1.2-1.35,2.17-3,2.25-4.77.13-2.98-1.58-4.63-2.18-5.15L165.15,3.25c-7.68-7.17-18.75-1.67-15.67,8.68l62.09,64.04H7.56C4.25,75.97.16,80.97,0,84.47c-.14,3.24,3.6,9.45,6.55,9.45h205.01l-1.49,3-59.37,59.29c-6.12,9.28,4.37,18.76,13.01,12.01l76.66-76.56s.04-.03.04-.03c.36-.33.72-.68,1.06-1.06l.07-.07h0Z"/>
</svg>