<?xml version="1.0" encoding="UTF-8"?>
<svg id="Layer_1" data-name="Layer 1" xmlns="http://www.w3.org/2000/svg" viewBox="0 0 174.25 173.42">
  <defs>
    <style>
      .cls-1 {
        fill: #fff;
      }
    </style>
  </defs>
  <path class="cls-1" d="M91.87,0l8.05.84c38.61,5.58,69.37,37.23,73.82,76.08l.51,6.76v7.03l-.49,6.62c-4.19,38.36-34.91,70.26-72.92,76.09v-61.13h20.23l3.75-25.01h-23.98v-18.88c0-1.58,1.54-5.17,2.54-6.44,5.35-6.82,15.08-4.25,22.58-4.75v-21.41c-2.3-.35-4.62-.73-6.93-.98-14.08-1.51-29.49-1.61-38.81,10.8-9.02,12.01-5.92,27.05-6.45,41.1.04.17-.12.56-.25.56h-21.94v25.01h21.94s.24.23.24.25v60.88C38.35,167.92,9.47,140.53,2.06,105.43c-.98-4.65-1.42-8.91-1.71-13.65-.04-.59-.16-1.48-.32-2.04.06-1.74-.08-3.5,0-5.23C2.19,39.57,37.1,2.02,82.57,0h9.3Z"/>
</svg>