<?xml version="1.0" encoding="UTF-8"?>
<svg id="Layer_1" data-name="Layer 1" xmlns="http://www.w3.org/2000/svg" viewBox="0 0 633.28 635.14">
  <defs>
    <style>
      .cls-1 {
        fill: #fff;
      }
    </style>
  </defs>
  <path class="cls-1" d="M154.7,3.81c100.45-11.35,219.42,7.02,321.78-.34,79.73,10.83,143.91,76.11,153.92,155.95-6.64,102.14,9,215.88,0,316.66-6.85,76.71-79.35,149.32-155.87,156.18-100.59,9.02-214.1-6.65-316.04,0-80.53-10.15-145.8-75.55-155.87-156.18,5.97-102.13-8.06-213.55-.11-314.59C8.55,84.63,78.21,12.45,154.7,3.81ZM170,65c-59.72,6.57-102.06,51.83-106.46,111.77-6.68,91.02,5.24,190.08,0,281.95,4.52,61.5,49.21,106.53,110.21,112.38,92.62-5.5,193.92,7.49,285.52,0,59.23-4.84,105.27-51.04,110.09-110.31,7.47-91.78-5.49-193.28,0-286.08-5.71-58.93-48.71-104.6-108.16-110.06-92.56-8.51-197.4,5.25-291.21.36Z"/>
  <path class="cls-1" d="M481.09,317.71c0,91.1-73.71,164.96-164.63,164.96s-164.63-73.85-164.63-164.96,73.71-164.96,164.63-164.96,164.63,73.85,164.63,164.96ZM418.77,317.7c0-56.63-45.82-102.54-102.34-102.54s-102.34,45.91-102.34,102.54,45.82,102.54,102.34,102.54,102.34-45.91,102.34-102.54Z"/>
  <ellipse class="cls-1" cx="483.5" cy="151.63" rx="38.6" ry="38.67"/>
</svg>