<?xml version="1.0" encoding="UTF-8"?>
<svg id="Layer_1" data-name="Layer 1" xmlns="http://www.w3.org/2000/svg" viewBox="0 0 809.78 810.06">
  <defs>
    <style>
      .cls-1 {
        fill: #fff;
      }
    </style>
  </defs>
  <g id="_3FqUbc.tif" data-name="3FqUbc.tif">
    <path class="cls-1" d="M.24,420.05c-.32-9.67-.32-20.46,0-30.14C7.51,170.12,194.15-5.21,414.02.12c226.38,5.48,403.56,193.71,395.49,420.11s-201.42,401.78-428.02,389.19C174.54,797.92,7.06,627.35.24,420.05ZM321.34,214.77c-46.06,1.14-94.31,6.62-139.1,17.13-10.06,2.36-22.24,5.06-31.81,8.63-26.51,9.9-33.82,44.43-12.6,63.55,19.63,17.68,40.39,6.29,62.25,1.18,60.45-14.14,125.12-17.35,186.97-14.07,84.83,4.49,171.01,21.47,246.3,61.4,6.03,3.2,12.22,7.81,18.68,9.87,28.73,9.15,55.62-16.4,48.34-45.57-4.34-17.37-18.75-24.1-33.18-31.85-101.61-54.51-231.3-73.09-345.85-70.26ZM322.13,353.95c-43.9,1.08-88.18,6.86-130.54,18.15-5.51,1.47-11.96,3.02-17.26,4.94-37.41,13.53-22.38,69.6,18.79,60.02,8.91-2.07,17.83-5.12,26.87-7.23,113.1-26.43,252.04-12.15,355.21,41.95,8.99,4.71,24.29,15.7,33.61,16.75,22.47,2.53,39.87-16.16,35.19-38.36-3.29-15.6-18.22-22.37-30.87-29.4-86.03-47.77-192.78-69.25-290.99-66.83ZM327.68,485.99c-38.82,1-77.78,5.89-115.77,13.49-7.29,1.46-15.42,2.87-22.53,4.83-30.22,8.3-23.81,49.72,6.54,49.76,112.17-25.92,233.28-28.37,337.64,25.57,8.06,4.17,16.1,9.75,24.04,13.63,22.43,10.99,45.35-12.6,33.66-34.45-4.69-8.76-21.2-16.75-30.07-21.47-71.9-38.26-152.09-53.46-233.5-51.36Z"/>
  </g>
</svg>